<svg xmlns="http://www.w3.org/2000/svg" viewBox="0 0 24 24" width="30" height="30" fill="currentColor">
    <path d="M12 0c-6.627 0-12 5.373-12 12s5.373 12 12 12 12-5.373 12-12-5.373-12-12-12zm10 12c0 .685-.07 1.354-.202 2h-3.853c.121-1.283.121-2.717 0-4h3.853c.132.646.202 1.315.202 2zm-.806-4h-3.447c-.567-1.144-1.396-2.124-2.416-2.857 1.765.856 3.169 2.266 4.01 3.976l.853-.119zm-6.851-3.492c.419.469.795 1.009 1.116 1.607l-2.459 2.458c-.026-.975-.026-2.113 0-3.065.482-.044.974-.067 1.466-.067.172 0 .342.005.51.014.424.022.848.049 1.27.084l.498-1.939c-.649-.055-1.301-.086-1.954-.094-.214-.003-.428-.004-.642-.004-.45 0-.899.015-1.346.044.197.157.389.319.577.486zm-7.343 7.492c0-.685.07-1.354.202-2h3.853c-.121 1.283-.121 2.717 0 4h-3.853c-.132-.646-.202-1.315-.202-2zm.806 4h3.447c.567 1.144 1.396 2.124 2.416 2.857-1.765-.856-3.169-2.266-4.01-3.976l-.853.119zm6.851 3.492c-.419-.469-.795-1.009-1.116-1.607l2.459-2.458c.026.975.026 2.113 0 3.065-.482.044-.974.067-1.466.067-.172 0-.342-.005-.51-.014-.424-.022-.848-.049-1.27-.084l-.498 1.939c.649.055 1.301.086 1.954.094.214.003.428.004.642.004.45 0 .899-.015 1.346-.044-.197-.157-.389-.319-.577-.486zm8.006-9.976c-.841-1.71-2.245-3.12-4.01-3.976l-.853.119h3.447c.567 1.144 1.396 2.124 2.416 2.857zm-8.863-2.905l.498 1.939c-.422-.035-.846-.062-1.27-.084-.168-.009-.338-.014-.51-.014-.492 0-.984.023-1.466.067.026.952.026 2.09 0 3.065l-2.459 2.458c-.321-.598-.697-1.138-1.116-1.607.188-.167.38-.329.577-.486.447-.029.896-.044 1.346-.044.214 0 .428.001.642.004.653.008 1.305.039 1.954.094l.498-1.939c-.422-.035-.846-.062-1.27-.084-.168-.009-.338-.014-.51-.014-.492 0-.984.023-1.466.067.026-.952.026-2.09 0-3.065l2.459-2.458c.321.598.697 1.138 1.116 1.607-.188.167-.38.329-.577.486zm-2.142 12.381c-1.02-.733-1.849-1.713-2.416-2.857h-3.447l-.853-.119c.841 1.71 2.245 3.12 4.01 3.976zm-1.27-5.905l-.498-1.939c.422.035.846.062 1.27.084.168.009.338.014.51.014.492 0 .984-.023 1.466-.067-.026-.952-.026-2.09 0-3.065l2.459-2.458c.321.598.697 1.138 1.116 1.607-.188.167-.38.329-.577.486-.447.029-.896.044-1.346.044-.214 0-.428-.001-.642-.004-.653-.008-1.305-.039-1.954-.094l-.498 1.939c.422.035.846.062 1.27.084.168.009.338.014.51.014.492 0 .984-.023 1.466-.067-.026.952-.026 2.09 0 3.065l-2.459 2.458c-.321-.598-.697-1.138-1.116-1.607.188-.167.38-.329.577-.486z"/>
</svg>